<svg xmlns="http://www.w3.org/2000/svg" version="1.1" xmlns:xlink="http://www.w3.org/1999/xlink" xmlns:svgjs="http://svgjs.dev/svgjs" width="1000" height="1125" viewBox="0 0 1000 1125"><g transform="matrix(1,0,0,1,0,0)"><svg viewBox="0 0 320 360" data-background-color="#ffffff" preserveAspectRatio="xMidYMid meet" height="1125" width="1000" xmlns="http://www.w3.org/2000/svg" xmlns:xlink="http://www.w3.org/1999/xlink"><defs></defs><g id="tight-bounds" transform="matrix(1,0,0,1,0,0)"><svg viewBox="0 0 320 360" height="360" width="320"><g><svg></svg></g><g><svg viewBox="0 0 320 360" height="360" width="320"><g><path d="M297.491 100.645c-12.426-21.51-112.674-79.355-137.491-79.355-24.817 0-125.028 57.845-137.491 79.355-11.591 20.02-11.591 138.726 0 158.746 12.463 21.474 112.674 79.319 137.491 79.319 24.817 0 125.064-57.845 137.491-79.355 11.591-20.02 11.591-138.69 0-158.71zM309.481 93.705c-14.461-24.998-119.469-86.295-149.481-86.295-30.012 0-135.02 61.297-149.481 86.295-14.025 24.199-14.025 148.391 0 172.59 14.461 24.998 119.469 86.295 149.481 86.295 30.012 0 135.02-61.297 149.481-86.259 14.025-24.235 14.025-148.427 0-172.626zM300.906 261.353c-12.753 22.055-115.472 81.317-140.906 81.318-25.434 0-128.153-59.298-140.906-81.354-11.881-20.529-11.881-142.178 0-162.707 12.753-22.019 115.472-81.281 140.906-81.281 25.434 0 128.153 59.298 140.906 81.318 11.881 20.529 11.881 142.178 0 162.706z" fill="#50a060" data-fill-palette-color="tertiary"></path></g><g transform="matrix(1,0,0,1,70.08999999999999,90.08999999999999)"><svg viewBox="0 0 179.82000000000002 179.82000000000002" height="179.82000000000002" width="179.82000000000002"><g><svg viewBox="0 0 179.82000000000002 179.82000000000002" height="179.82000000000002" width="179.82000000000002"><g><svg viewBox="0 0 179.82000000000002 179.82000000000002" height="179.82000000000002" width="179.82000000000002"><g><svg viewBox="0 0 179.82000000000002 179.82000000000002" height="179.82000000000002" width="179.82000000000002"><g><svg viewBox="0 0 179.82000000000002 179.82000000000002" height="179.82000000000002" width="179.82000000000002"><g transform="matrix(1,0,0,1,37.04477723275963,36.93002441959793)"><svg viewBox="0 0 105.73044553448076 105.95995116080417" height="105.95995116080417" width="105.73044553448076"><g><circle r="53" cx="52.97997558040208" cy="52.97997558040208" fill="#50a060" data-fill-palette-color="accent"></circle><svg xmlns="http://www.w3.org/2000/svg" xmlns:xlink="http://www.w3.org/1999/xlink" version="1.1" x="15.844877942028411" y="15.844877942028411" viewBox="5 20.53700065612793 90 58.925994873046875" enable-background="new 0 0 100 100" xml:space="preserve" height="74.27019527674734" width="74.04068965042394" class="icon-o-0" data-fill-palette-color="quaternary" id="o-0"><g fill="#ffffff" data-fill-palette-color="quaternary"><g fill="#ffffff" data-fill-palette-color="quaternary"><g fill="#ffffff" data-fill-palette-color="quaternary"><polygon points="55.031,79.463 44.968,79.463 44.968,72.938 46.425,72.938 46.425,78.006 53.574,78.006 53.574,72.938      55.031,72.938    " fill="#ffffff" data-fill-palette-color="quaternary"></polygon><polygon points="65.563,53.499 43.874,53.499 43.874,52.042 62.977,52.042 55.873,40.298 57.119,39.542    " fill="#ffffff" data-fill-palette-color="quaternary"></polygon><polygon points="71.674,72.285 28.327,72.285 39.626,53.499 34.442,53.499 42.998,39.277 38.719,39.277 49.997,20.537      61.275,39.277 46.806,39.277 46.806,37.82 58.698,37.82 49.997,23.364 41.296,37.82 45.573,37.82 37.019,52.042 42.203,52.042      30.904,70.828 69.092,70.828 59.249,54.521 60.495,53.767    " fill="#ffffff" data-fill-palette-color="quaternary"></polygon></g><g fill="#ffffff" data-fill-palette-color="quaternary"><g fill="#ffffff" data-fill-palette-color="quaternary"><polygon points="85.418,64.67 79.132,64.67 79.132,60.688 80.589,60.688 80.589,63.213 83.961,63.213 83.961,60.688       85.418,60.688     " fill="#ffffff" data-fill-palette-color="quaternary"></polygon><path d="M95 60.133H69.55l6.34-10.538H72.98l4.801-7.979h-2.402l6.482-10.771h0.824l0.217 0.353 6.271 10.417H86.77l4.8 7.979h-2.908L95 60.133zM72.125 58.676h20.298l-6.338-10.538h2.906l-4.798-7.979h2.399l-4.317-7.175-4.316 7.175h2.4l-4.798 7.979h2.908L72.125 58.676z" fill="#ffffff" data-fill-palette-color="quaternary"></path></g><g fill="#ffffff" data-fill-palette-color="quaternary"><polygon points="20.868,64.67 14.582,64.67 14.582,60.688 16.039,60.688 16.039,63.213 19.411,63.213 19.411,60.688       20.868,60.688     " fill="#ffffff" data-fill-palette-color="quaternary"></polygon><path d="M30.45 60.133H5l6.339-10.538H8.431l4.799-7.979h-2.401l6.482-10.771h0.823l0.217 0.353 6.27 10.417h-2.4l4.799 7.979h-2.908L30.45 60.133zM7.577 58.676h20.297l-6.34-10.538h2.909l-4.8-7.979h2.399l-4.317-7.175-4.317 7.175h2.4l-4.8 7.979h2.909L7.577 58.676z" fill="#ffffff" data-fill-palette-color="quaternary"></path></g></g></g></g></svg></g></svg></g><path d="M9.94 65.63l7.863 2.717c0.334 0.115 0.535 0.282 0.603 0.5v0c0.125 0.323 0.134 0.642 0.024 0.956v0c-0.155 0.449-0.451 0.692-0.887 0.728v0c-0.144 0.001-0.299-0.028-0.466-0.086v0l-15.253-5.272c-0.359-0.124-0.586-0.321-0.679-0.591-0.094-0.269-0.107-0.5-0.041-0.692 0.067-0.192 0.14-0.343 0.221-0.452 0.089-0.113 0.204-0.206 0.345-0.28v0c0.272-0.164 0.566-0.192 0.88-0.083v0l6.63 2.292-4.776-9.807c-0.168-0.324-0.207-0.617-0.116-0.88 0.091-0.263 0.253-0.462 0.486-0.597 0.231-0.128 0.469-0.15 0.713-0.066 0.244 0.084 0.44 0.224 0.587 0.419v0l4.087 8.717 10.27-4.466c0.672-0.242 1.118-0.066 1.337 0.527v0c0.104 0.323 0.112 0.61 0.026 0.86v0c-0.118 0.34-0.357 0.555-0.719 0.646v0zM19.984 33.62l15.549 4.268c0.118 0.058 0.231 0.128 0.338 0.212 0.107 0.083 0.194 0.193 0.259 0.33 0.06 0.133 0.082 0.265 0.065 0.398v0c0.023 0.302-0.046 0.557-0.209 0.766v0c-0.329 0.423-0.735 0.564-1.217 0.422v0l-4.214-1.199-5.554 7.148 2.221 3.763c0.274 0.411 0.267 0.801-0.02 1.171-0.292 0.375-0.67 0.536-1.137 0.483v0c-0.149-0.03-0.269-0.08-0.36-0.151-0.086-0.067-0.177-0.181-0.275-0.342v0l-8.039-13.933c-0.604-1.037-0.789-1.834-0.554-2.39v0c0.074-0.14 0.17-0.319 0.289-0.537v0c0.275-0.354 0.559-0.559 0.851-0.615v0c0.435-0.117 1.104-0.049 2.007 0.206zM18.593 35.26l5.397 9.119 4.798-6.175zM48.41 29.538l-3.658 2.496c-0.387 0.264-0.808 0.28-1.262 0.048v0c-0.116-0.085-0.209-0.198-0.281-0.339v0l-9.05-13.263c-0.253-0.37-0.271-0.777-0.056-1.22v0c0.074-0.133 0.184-0.249 0.33-0.348v0l3.599-2.456c3.97-2.709 7.482-2.994 10.536-0.854v0c0.996 0.701 1.907 1.674 2.732 2.919v0c1.691 2.478 2.267 4.834 1.728 7.067v0c-0.533 2.229-2.073 4.213-4.618 5.95zM36.396 17.766l8.316 12.187 2.936-2.003c2.955-2.016 3.964-4.464 3.027-7.341v0c-0.281-0.893-0.756-1.83-1.426-2.812-0.666-0.976-1.413-1.752-2.242-2.328-0.825-0.571-1.691-0.925-2.598-1.062v0c-1.703-0.243-3.58 0.335-5.633 1.735v0zM70.25 2.559l9.738 12.851c0.059 0.118 0.106 0.243 0.14 0.373 0.034 0.131 0.036 0.271 0.005 0.42-0.033 0.142-0.097 0.26-0.192 0.355v0c-0.165 0.254-0.376 0.414-0.632 0.481v0c-0.519 0.136-0.926 0-1.222-0.406v0l-2.613-3.516-8.758 2.29-0.528 4.338c-0.033 0.493-0.275 0.798-0.729 0.916-0.46 0.12-0.858 0.018-1.196-0.308v0c-0.1-0.114-0.165-0.227-0.194-0.338-0.027-0.105-0.031-0.252-0.01-0.44v0l2.103-15.947c0.152-1.19 0.49-1.935 1.015-2.234v0c0.144-0.066 0.329-0.149 0.556-0.25v0c0.433-0.113 0.783-0.103 1.05 0.03v0c0.417 0.172 0.906 0.633 1.467 1.385zM68.148 3.014l-1.269 10.519 7.565-1.978zM94.104 10.386l-4.999-0.02c-0.265-0.001-0.482-0.09-0.651-0.268-0.162-0.184-0.243-0.405-0.241-0.662 0.001-0.251 0.09-0.461 0.267-0.631 0.177-0.169 0.388-0.253 0.632-0.252v0l5 0.02c0.272 0.001 0.495 0.087 0.671 0.258 0.176 0.17 0.263 0.381 0.262 0.632-0.001 0.258-0.083 0.478-0.247 0.661-0.17 0.176-0.402 0.263-0.694 0.262zM109.283 8.985l-1.925 8.093c-0.082 0.343-0.227 0.56-0.437 0.649v0c-0.309 0.157-0.626 0.196-0.95 0.12v0c-0.462-0.11-0.733-0.38-0.812-0.811v0c-0.015-0.143-0.002-0.3 0.039-0.472v0l3.735-15.7c0.088-0.37 0.261-0.615 0.52-0.735 0.259-0.12 0.487-0.156 0.686-0.109 0.198 0.047 0.355 0.105 0.471 0.175 0.121 0.078 0.225 0.183 0.312 0.315v0c0.191 0.255 0.247 0.544 0.171 0.867v0l-1.624 6.825 9.285-5.724c0.306-0.199 0.594-0.267 0.864-0.203 0.271 0.064 0.485 0.206 0.642 0.425 0.151 0.217 0.196 0.451 0.137 0.702-0.06 0.251-0.179 0.46-0.359 0.627v0l-8.268 4.93 5.461 9.777c0.307 0.645 0.176 1.106-0.392 1.382v0c-0.311 0.135-0.596 0.172-0.853 0.111v0c-0.35-0.083-0.588-0.3-0.714-0.651v0zM142.129 15.814l-2.709 15.894c-0.046 0.124-0.105 0.243-0.177 0.358-0.072 0.115-0.173 0.212-0.303 0.29-0.126 0.073-0.256 0.108-0.39 0.104v0c-0.298 0.053-0.559 0.009-0.783-0.132v0c-0.454-0.286-0.634-0.675-0.54-1.169v0l0.776-4.312-7.662-4.82-3.525 2.582c-0.382 0.313-0.771 0.345-1.167 0.096-0.402-0.253-0.6-0.614-0.594-1.083v0c0.015-0.151 0.053-0.275 0.115-0.374 0.058-0.092 0.162-0.195 0.314-0.307v0l13.069-9.377c0.972-0.704 1.747-0.966 2.324-0.788v0c0.147 0.06 0.334 0.138 0.562 0.234v0c0.379 0.239 0.611 0.501 0.696 0.786v0c0.16 0.421 0.158 1.094-0.006 2.018zM140.36 14.592l-8.541 6.271 6.619 4.165zM146.488 38.924l12.21-10.491c0.201-0.173 0.411-0.25 0.631-0.234v0c0.383 0.029 0.692 0.149 0.926 0.359v0l3.843 4.472c1.066 1.241 1.613 2.543 1.639 3.907v0c0.04 1.317-0.465 2.427-1.516 3.33v0c-0.762 0.655-1.627 0.986-2.595 0.995v0c-1.015-0.014-1.957-0.341-2.828-0.98v0l-0.031 0.027c1.046 1.759 1.185 3.394 0.415 4.905v0c-0.256 0.452-0.623 0.884-1.101 1.296-0.474 0.407-1.004 0.733-1.591 0.977-0.591 0.239-1.216 0.32-1.874 0.241v0c-1.507-0.181-2.925-1.045-4.251-2.589v0l-3.995-4.65c-0.177-0.206-0.263-0.441-0.257-0.705v0c-0.007-0.352 0.118-0.638 0.375-0.86zM153.597 35.73l-5.19 4.459 2.515 2.927c1.106 1.287 2.075 2.034 2.906 2.241v0c0.973 0.31 1.933 0.057 2.881-0.756v0c1.493-1.283 1.584-2.896 0.272-4.839v0c-0.42-0.552-0.914-1.157-1.48-1.816v0zM162.56 38.646v0c1.56-1.34 1.397-3.071-0.487-5.192v0l-2.476-2.881-4.726 4.062 2.495 2.903c1.221 1.421 2.492 2.025 3.813 1.812v0c0.463-0.076 0.924-0.31 1.381-0.704zM177.493 61.275l-11.633 11.164c-0.11 0.072-0.229 0.133-0.355 0.183-0.126 0.049-0.265 0.067-0.417 0.053-0.145-0.016-0.27-0.066-0.375-0.149v0c-0.271-0.135-0.455-0.325-0.551-0.572v0c-0.195-0.5-0.108-0.92 0.262-1.261v0l3.189-3.004-3.291-8.432-4.37-0.022c-0.493 0.025-0.825-0.181-0.995-0.617-0.173-0.443-0.117-0.851 0.167-1.224v0c0.102-0.113 0.206-0.19 0.314-0.232 0.101-0.039 0.246-0.06 0.436-0.06v0l16.083 0.237c1.2 0.013 1.979 0.262 2.337 0.749v0c0.082 0.136 0.186 0.31 0.313 0.523v0c0.163 0.417 0.193 0.766 0.091 1.046v0c-0.122 0.434-0.524 0.973-1.205 1.618zM176.798 59.241l-10.596-0.04 2.843 7.284zM16.786 115.264v0c-0.304 0.098-0.556 0.29-0.756 0.575-0.207 0.288-0.343 0.617-0.409 0.988-0.07 0.379-0.106 0.79-0.106 1.232-0.004 0.451-0.006 0.922-0.004 1.413 0.004 0.498-0.012 0.992-0.047 1.481-0.035 0.489-0.131 0.934-0.287 1.334v0c-0.344 0.881-1 1.478-1.969 1.79v0c-0.459 0.148-0.93 0.179-1.414 0.092-0.482-0.08-0.923-0.273-1.321-0.58v0c-0.838-0.607-1.471-1.576-1.9-2.907v0c-0.406-1.26-0.442-2.468-0.109-3.624v0c0.183-0.715 0.404-1.114 0.662-1.198v0c0.233-0.075 0.457-0.019 0.675 0.168v0c0.077 0.039 0.129 0.101 0.156 0.185 0.029 0.09 0.024 0.196-0.016 0.316-0.038 0.126-0.086 0.274-0.146 0.443-0.06 0.169-0.116 0.38-0.171 0.632-0.056 0.246-0.095 0.501-0.117 0.765v0c-0.045 0.656 0.027 1.257 0.217 1.803 0.19 0.545 0.377 0.97 0.561 1.274 0.179 0.313 0.398 0.571 0.655 0.773v0c0.552 0.428 1.117 0.556 1.697 0.384v0c0.724-0.233 1.169-0.765 1.336-1.597v0c0.07-0.379 0.11-0.788 0.118-1.226 0.007-0.444 0.004-0.907-0.009-1.388-0.012-0.481 0.009-0.969 0.063-1.464 0.048-0.493 0.147-0.95 0.297-1.369v0c0.333-0.892 0.942-1.48 1.827-1.766v0c0.459-0.148 0.928-0.174 1.408-0.079 0.48 0.095 0.912 0.295 1.295 0.599v0c0.78 0.583 1.357 1.435 1.733 2.554v0c0.527 1.635 0.425 3.122-0.305 4.464v0c-0.074 0.081-0.166 0.139-0.276 0.174-0.103 0.033-0.195 0.059-0.274 0.078-0.073 0.016-0.157 0.001-0.251-0.048v0c-0.163-0.062-0.27-0.173-0.322-0.335-0.054-0.168-0.002-0.381 0.158-0.639v0c0.188-0.588 0.287-1.045 0.297-1.369v0c0.047-0.65-0.018-1.25-0.195-1.798v0c-0.229-0.711-0.57-1.271-1.023-1.682v0c-0.545-0.495-1.121-0.644-1.728-0.448zM24.077 128.29l-7.209 8.249c-0.073 0.051-0.152 0.098-0.238 0.14-0.079 0.039-0.17 0.062-0.273 0.068-0.1-0.003-0.188-0.028-0.264-0.074v0c-0.191-0.08-0.327-0.202-0.408-0.366v0c-0.16-0.322-0.124-0.609 0.108-0.86v0l1.976-2.228-2.728-5.512-2.961 0.238c-0.331 0.05-0.567-0.068-0.709-0.353-0.142-0.286-0.128-0.565 0.04-0.838v0c0.064-0.085 0.13-0.144 0.196-0.177 0.067-0.033 0.166-0.055 0.297-0.067v0l10.9-0.794c0.817-0.064 1.358 0.059 1.624 0.367v0c0.066 0.088 0.148 0.199 0.244 0.333v0c0.136 0.274 0.177 0.511 0.125 0.711v0c-0.059 0.294-0.299 0.682-0.72 1.163zM23.495 126.953l-7.188 0.604 2.358 4.764zM27.469 132.631l-6.607 9.141v0l10.817-2.916c0.398-0.067 0.688 0.03 0.868 0.293v0c0.104 0.151 0.154 0.302 0.151 0.453v0c-0.029 0.234-0.13 0.41-0.304 0.529v0l-0.076 0.052c-0.022 0.015-0.066 0.029-0.132 0.041v0l-10.963 2.794c-0.607 0.195-1.103 0.012-1.487-0.547v0c-0.346-0.504-0.326-1.015 0.059-1.535v0l6.467-9.254c0.063-0.076 0.125-0.135 0.187-0.178 0.062-0.042 0.142-0.069 0.242-0.079 0.101-0.02 0.204-0.021 0.307-0.002v0c0.208 0.063 0.364 0.17 0.468 0.322v0c0.215 0.313 0.216 0.609 0.003 0.886zM29.358 154.371l-4.434-5.023c-0.121-0.137-0.177-0.292-0.166-0.465v0c-0.002-0.279 0.071-0.484 0.219-0.614v0l8.183-7.223c0.219-0.193 0.49-0.229 0.815-0.108v0c0.084 0.044 0.167 0.092 0.25 0.145v0l4.299 4.87c0.148 0.168 0.207 0.338 0.178 0.509-0.03 0.171-0.106 0.311-0.228 0.419-0.117 0.103-0.267 0.154-0.45 0.152-0.183-0.002-0.339-0.076-0.469-0.224v0l-3.787-4.29-3.099 2.736 3.605 4.084c0.148 0.168 0.21 0.335 0.185 0.502-0.025 0.167-0.098 0.304-0.22 0.412v0c-0.117 0.103-0.262 0.15-0.435 0.139-0.167-0.015-0.316-0.097-0.446-0.245v0l-3.605-4.084-3.389 2.992 3.948 4.473c0.144 0.163 0.198 0.327 0.164 0.494-0.03 0.171-0.108 0.313-0.235 0.425-0.122 0.108-0.267 0.159-0.436 0.154-0.168-0.006-0.317-0.082-0.447-0.23zM44.787 152.889l-2.707-2.059c-0.178-0.136-0.27-0.29-0.273-0.465-0.004-0.174 0.041-0.323 0.135-0.447 0.099-0.13 0.232-0.216 0.401-0.258 0.169-0.042 0.342 0.004 0.52 0.14v0l6.621 5.037c0.173 0.132 0.259 0.282 0.257 0.452 0.004 0.174-0.043 0.326-0.141 0.455-0.095 0.124-0.229 0.205-0.403 0.244-0.174 0.038-0.339-0.002-0.496-0.121v0l-2.682-2.041-6.295 8.273c-0.214 0.281-0.479 0.378-0.796 0.29v0c-0.087-0.032-0.192-0.095-0.317-0.189-0.119-0.09-0.209-0.236-0.27-0.436-0.056-0.196-0.005-0.396 0.151-0.602v0zM55.098 164.31l2.309-3.957c0.178-0.305 0.445-0.412 0.802-0.322v0c0.086 0.027 0.192 0.069 0.315 0.125 0.124 0.057 0.229 0.181 0.314 0.372 0.085 0.191 0.062 0.398-0.067 0.621v0l-5.513 9.444c-0.116 0.199-0.264 0.318-0.443 0.355v0c-0.234 0.037-0.441 0.002-0.622-0.104-0.176-0.103-0.3-0.246-0.374-0.431-0.079-0.188-0.054-0.393 0.076-0.615v0l2.551-4.371-5.646-3.295-2.55 4.371c-0.116 0.199-0.258 0.321-0.426 0.364v0c-0.234 0.037-0.441 0.002-0.623-0.104-0.188-0.109-0.315-0.255-0.382-0.435-0.067-0.181-0.036-0.383 0.094-0.606v0l5.512-9.444c0.178-0.305 0.436-0.417 0.775-0.338v0c0.086 0.027 0.192 0.069 0.316 0.125 0.13 0.06 0.234 0.184 0.313 0.372 0.085 0.191 0.062 0.398-0.067 0.621v0l-2.31 3.957zM63.534 175.532l-6.221-2.486c-0.17-0.068-0.289-0.181-0.358-0.34v0c-0.127-0.248-0.155-0.464-0.081-0.647v0l4.05-10.135c0.108-0.271 0.335-0.426 0.679-0.464v0c0.095 0.001 0.191 0.007 0.289 0.017v0l6.032 2.411c0.208 0.083 0.337 0.208 0.388 0.374 0.05 0.166 0.045 0.325-0.015 0.476-0.058 0.145-0.169 0.258-0.333 0.339-0.164 0.081-0.337 0.085-0.52 0.011v0l-5.313-2.123-1.534 3.839 5.058 2.021c0.208 0.083 0.339 0.205 0.392 0.365 0.053 0.16 0.049 0.316-0.012 0.467v0c-0.058 0.145-0.166 0.252-0.325 0.32-0.156 0.062-0.326 0.056-0.508-0.017v0l-5.059-2.022-1.677 4.198 5.54 2.214c0.202 0.081 0.325 0.203 0.369 0.367 0.05 0.166 0.044 0.328-0.019 0.486-0.06 0.151-0.167 0.262-0.319 0.333-0.152 0.071-0.32 0.069-0.503-0.004zM72.22 177.019l2.03-10.725c0.057-0.3 0.264-0.499 0.621-0.598v0c0.102-0.029 0.203-0.034 0.304-0.015v0l3.651 0.692c1.974 0.374 3.206 1.149 3.695 2.326v0c0.159 0.472 0.176 1.042 0.049 1.709-0.126 0.667-0.45 1.19-0.97 1.567-0.521 0.378-1.2 0.574-2.039 0.589v0l-0.013 0.07c0.748 0.28 1.244 0.674 1.486 1.183v0c0.189 0.423 0.258 0.954 0.206 1.593-0.052 0.64-0.092 1.143-0.121 1.511v0c-0.052 0.529-0.114 1.111-0.185 1.747v0c-0.048 0.253-0.163 0.425-0.346 0.515-0.176 0.091-0.361 0.118-0.555 0.082-0.193-0.037-0.356-0.126-0.488-0.269-0.125-0.141-0.184-0.325-0.175-0.551v0c0.07-0.698 0.136-1.318 0.196-1.86 0.053-0.536 0.084-0.993 0.094-1.37 0.009-0.378-0.016-0.697-0.078-0.958-0.056-0.252-0.161-0.462-0.316-0.63v0c-0.257-0.284-0.823-0.525-1.697-0.725v0l-2.891-0.548-0.937 4.952c-0.068 0.36-0.269 0.564-0.603 0.612v0c-0.092 0.01-0.208 0.002-0.348-0.025-0.147-0.028-0.289-0.117-0.426-0.267-0.144-0.152-0.192-0.354-0.144-0.608zM74.898 171.194l2.241 0.424c1.421 0.269 2.42 0.227 2.998-0.127v0c0.413-0.247 0.695-0.68 0.847-1.3v0c0.167-0.88-0.053-1.526-0.659-1.939v0c-0.319-0.247-0.657-0.415-1.013-0.503-0.356-0.088-0.638-0.152-0.845-0.191v0l-2.781-0.526zM90.69 168.652l3.921 10.231c0.011 0.089 0.016 0.18 0.013 0.275-0.002 0.088-0.025 0.179-0.069 0.273-0.05 0.087-0.113 0.153-0.188 0.199v0c-0.16 0.132-0.331 0.195-0.515 0.19v0c-0.36-0.01-0.596-0.176-0.709-0.498v0l-1.046-2.789-6.148-0.165-1.173 2.728c-0.11 0.316-0.325 0.47-0.644 0.462-0.319-0.009-0.56-0.151-0.722-0.427v0c-0.045-0.096-0.066-0.182-0.064-0.256 0.002-0.075 0.028-0.172 0.079-0.294v0l4.395-10.006c0.326-0.752 0.687-1.173 1.083-1.264v0c0.109-0.017 0.245-0.038 0.409-0.061v0c0.305 0.008 0.534 0.082 0.687 0.223v0c0.233 0.19 0.463 0.583 0.691 1.179zM89.236 168.542l-2.827 6.636 5.313 0.143zM97.161 178.922l-0.662-10.916c-0.019-0.318 0.119-0.555 0.416-0.708v0c0.087-0.026 0.215-0.05 0.383-0.075 0.169-0.024 0.328 0.021 0.477 0.135 0.15 0.113 0.232 0.299 0.248 0.556v0l0.663 10.915c0.022 0.366-0.123 0.613-0.435 0.741v0c-0.086 0.032-0.208 0.053-0.363 0.063-0.149 0.009-0.305-0.043-0.468-0.156-0.156-0.113-0.243-0.298-0.259-0.555zM102.411 178.361l-1.858-10.57c-0.051-0.287 0.009-0.539 0.177-0.755v0c0.142-0.211 0.318-0.349 0.527-0.413v0c0.414-0.073 0.771 0.033 1.069 0.319v0l8.233 8.663-1.684-9.577c-0.042-0.241-0.025-0.416 0.052-0.526v0c0.135-0.175 0.282-0.277 0.443-0.305 0.154-0.027 0.28-0.035 0.378-0.025 0.093 0.018 0.175 0.052 0.245 0.101v0c0.188 0.091 0.297 0.258 0.326 0.501v0l1.85 10.52c0.079 0.448-0.083 0.8-0.486 1.057v0c-0.099 0.066-0.232 0.113-0.399 0.143v0c-0.354 0.062-0.697-0.046-1.029-0.326v0l-8.05-8.561 1.67 9.497c0.036 0.207 0.003 0.368-0.101 0.483v0c-0.155 0.179-0.329 0.285-0.523 0.319-0.194 0.034-0.371 0.007-0.531-0.082-0.167-0.088-0.27-0.242-0.309-0.463zM115.675 175.438l-3.417-10.388c-0.072-0.219-0.058-0.417 0.041-0.592 0.099-0.176 0.252-0.297 0.458-0.366v0l5.804-1.909c0.213-0.07 0.389-0.056 0.528 0.041 0.133 0.099 0.224 0.226 0.275 0.381 0.049 0.148 0.049 0.302 0.001 0.461-0.054 0.161-0.188 0.276-0.4 0.346v0l-5.03 1.654 1.263 3.84 4.836-1.591c0.213-0.07 0.392-0.057 0.538 0.038 0.139 0.097 0.233 0.22 0.282 0.368 0.051 0.155 0.042 0.311-0.028 0.47-0.076 0.161-0.207 0.272-0.394 0.333v0l-4.836 1.591 1.588 4.827c0.072 0.219 0.069 0.406-0.009 0.56v0c-0.285 0.394-0.639 0.524-1.061 0.392v0c-0.182-0.054-0.329-0.206-0.439-0.456zM123.521 164.633c0.149 0.631 0.359 1.217 0.63 1.757 0.268 0.534 0.611 1.053 1.031 1.557 0.413 0.507 0.881 0.895 1.403 1.164 0.531 0.273 1.093 0.424 1.685 0.454 0.589 0.024 1.217-0.132 1.885-0.466 0.662-0.331 1.168-0.745 1.52-1.24 0.343-0.498 0.555-1.037 0.636-1.617 0.091-0.577 0.063-1.185-0.083-1.826-0.14-0.643-0.344-1.232-0.612-1.766-0.271-0.54-0.62-1.056-1.049-1.547-0.422-0.494-0.892-0.878-1.408-1.151-0.513-0.282-1.07-0.432-1.671-0.45-0.61-0.021-1.246 0.135-1.908 0.467-0.668 0.334-1.167 0.748-1.497 1.239-0.334 0.486-0.55 1.023-0.65 1.613-0.097 0.58-0.067 1.184 0.088 1.812zM122.604 167.12v0c-0.395-0.789-0.654-1.593-0.777-2.413-0.116-0.823-0.07-1.601 0.14-2.336v0c0.39-1.524 1.396-2.7 3.016-3.527v0c1.663-0.833 3.231-0.947 4.703-0.341v0c0.701 0.279 1.341 0.714 1.918 1.306 0.577 0.591 1.064 1.282 1.459 2.07v0c0.401 0.801 0.672 1.622 0.813 2.463 0.14 0.841 0.108 1.616-0.098 2.327v0c-0.402 1.53-1.435 2.712-3.098 3.545v0c-1.639 0.821-3.179 0.929-4.622 0.323v0c-0.72-0.285-1.376-0.723-1.968-1.314-0.589-0.601-1.085-1.301-1.486-2.103zM138.258 164.828l-6.305-8.91c-0.176-0.249-0.176-0.537 0.001-0.862v0c0.05-0.094 0.117-0.17 0.2-0.229v0l3.034-2.147c1.64-1.161 3.053-1.508 4.24-1.041v0c0.45 0.213 0.872 0.597 1.263 1.151 0.392 0.554 0.543 1.15 0.454 1.787-0.09 0.637-0.421 1.262-0.993 1.875v0l0.041 0.058c0.721-0.344 1.349-0.427 1.883-0.247v0c0.436 0.157 0.866 0.477 1.29 0.958 0.424 0.482 0.758 0.86 1.003 1.136v0c0.345 0.405 0.721 0.854 1.128 1.348v0c0.149 0.211 0.192 0.413 0.13 0.606-0.057 0.19-0.166 0.342-0.326 0.456-0.161 0.114-0.338 0.169-0.532 0.164-0.189-0.008-0.361-0.094-0.519-0.257v0c-0.454-0.535-0.854-1.013-1.201-1.432-0.349-0.41-0.656-0.75-0.921-1.02-0.266-0.269-0.513-0.473-0.743-0.609-0.22-0.135-0.445-0.205-0.672-0.21v0c-0.383-0.012-0.95 0.227-1.701 0.717v0l-2.402 1.699 2.912 4.115c0.212 0.299 0.219 0.585 0.021 0.858v0c-0.056 0.073-0.143 0.151-0.259 0.233-0.122 0.086-0.285 0.127-0.489 0.121-0.209-0.002-0.388-0.108-0.537-0.318zM135.928 158.855l1.862-1.317c1.18-0.835 1.844-1.584 1.991-2.245v0c0.109-0.468-0.006-0.973-0.347-1.513v0c-0.518-0.731-1.135-1.022-1.853-0.872v0c-0.4 0.058-0.755 0.185-1.065 0.38-0.311 0.195-0.552 0.353-0.724 0.475v0l-2.311 1.635zM154.125 152.605l-4.87 4.602c-0.133 0.126-0.286 0.186-0.459 0.181v0c-0.279 0.011-0.486-0.055-0.621-0.198v0l-7.496-7.933c-0.2-0.212-0.246-0.482-0.136-0.811v0c0.041-0.085 0.086-0.17 0.137-0.255v0l4.722-4.462c0.163-0.154 0.33-0.219 0.502-0.194 0.172 0.024 0.314 0.095 0.427 0.213 0.107 0.113 0.163 0.262 0.167 0.444 0.004 0.183-0.065 0.341-0.208 0.477v0l-4.159 3.93 2.839 3.005 3.959-3.741c0.163-0.154 0.328-0.221 0.496-0.202 0.168 0.019 0.307 0.088 0.419 0.206v0c0.107 0.113 0.158 0.257 0.154 0.429-0.01 0.168-0.086 0.319-0.229 0.455v0l-3.96 3.741 3.105 3.286 4.337-4.098c0.158-0.149 0.32-0.209 0.488-0.181 0.172 0.024 0.317 0.098 0.433 0.221 0.112 0.118 0.168 0.262 0.168 0.43 0 0.168-0.071 0.32-0.215 0.455zM150.141 142.856v0c0.249 0.2 0.548 0.304 0.896 0.314 0.354 0.014 0.704-0.053 1.05-0.203 0.355-0.15 0.717-0.347 1.087-0.59 0.379-0.245 0.773-0.503 1.182-0.775 0.414-0.277 0.834-0.536 1.261-0.777 0.427-0.24 0.851-0.405 1.271-0.495v0c0.925-0.199 1.784 0.021 2.579 0.657v0c0.376 0.301 0.661 0.678 0.856 1.13 0.199 0.446 0.28 0.92 0.244 1.422v0c-0.045 1.034-0.505 2.096-1.38 3.187v0c-0.828 1.033-1.816 1.729-2.964 2.087v0c-0.698 0.241-1.153 0.277-1.365 0.107v0c-0.191-0.153-0.268-0.371-0.231-0.655v0c-0.009-0.086 0.013-0.163 0.068-0.232 0.059-0.074 0.15-0.128 0.272-0.161 0.126-0.038 0.276-0.079 0.451-0.122 0.174-0.043 0.381-0.112 0.622-0.206 0.236-0.089 0.471-0.197 0.703-0.324v0c0.573-0.324 1.034-0.715 1.384-1.174 0.35-0.459 0.602-0.849 0.755-1.169 0.162-0.322 0.257-0.646 0.284-0.973v0c0.054-0.696-0.151-1.239-0.614-1.628v0c-0.593-0.475-1.283-0.554-2.069-0.235v0c-0.355 0.15-0.718 0.342-1.088 0.576-0.374 0.239-0.759 0.497-1.154 0.772-0.395 0.275-0.814 0.527-1.257 0.754-0.438 0.232-0.873 0.401-1.305 0.506v0c-0.928 0.213-1.755 0.029-2.481-0.552v0c-0.376-0.301-0.657-0.678-0.842-1.131-0.185-0.453-0.256-0.923-0.213-1.411v0c0.057-0.972 0.45-1.923 1.177-2.853v0c1.074-1.34 2.372-2.075 3.893-2.204v0c0.108 0.017 0.207 0.062 0.298 0.134 0.085 0.068 0.157 0.13 0.216 0.186 0.054 0.052 0.087 0.13 0.098 0.235v0c0.038 0.17 0.004 0.321-0.102 0.454-0.11 0.138-0.317 0.211-0.62 0.22v0c-0.595 0.167-1.03 0.336-1.306 0.506v0c-0.568 0.319-1.033 0.703-1.394 1.153v0c-0.467 0.583-0.747 1.176-0.84 1.781v0c-0.113 0.727 0.079 1.29 0.578 1.689zM155.402 132.275l-1.743 2.921c-0.115 0.192-0.258 0.3-0.43 0.324-0.172 0.024-0.325-0.004-0.46-0.085-0.14-0.083-0.24-0.207-0.301-0.369-0.061-0.163-0.034-0.34 0.081-0.533v0l4.262-7.144c0.111-0.187 0.251-0.289 0.42-0.307 0.172-0.024 0.328 0.006 0.468 0.09 0.134 0.08 0.23 0.204 0.288 0.373 0.057 0.169 0.036 0.338-0.066 0.507v0l-1.726 2.894 8.928 5.326c0.303 0.181 0.429 0.434 0.377 0.759v0c-0.022 0.09-0.073 0.202-0.153 0.335-0.077 0.128-0.211 0.234-0.403 0.318-0.188 0.077-0.393 0.05-0.614-0.083v0zM160.802 126.203v0c0.291 0.13 0.607 0.155 0.947 0.077 0.346-0.076 0.667-0.23 0.964-0.462 0.306-0.235 0.606-0.518 0.902-0.847 0.304-0.333 0.62-0.682 0.947-1.049 0.33-0.373 0.671-0.73 1.024-1.071 0.353-0.341 0.721-0.608 1.104-0.801v0c0.844-0.426 1.731-0.432 2.661-0.018v0c0.44 0.196 0.812 0.488 1.114 0.876 0.306 0.381 0.504 0.819 0.596 1.314v0c0.218 1.011 0.042 2.156-0.527 3.433v0c-0.539 1.209-1.319 2.132-2.338 2.77v0c-0.614 0.41-1.045 0.56-1.293 0.449v0c-0.223-0.1-0.353-0.291-0.39-0.575v0c-0.031-0.081-0.028-0.161 0.007-0.242 0.039-0.087 0.113-0.161 0.223-0.224 0.112-0.069 0.247-0.146 0.404-0.232 0.157-0.086 0.34-0.205 0.55-0.357 0.206-0.146 0.406-0.31 0.598-0.492v0c0.472-0.458 0.819-0.954 1.042-1.486 0.223-0.533 0.367-0.973 0.433-1.323 0.076-0.353 0.085-0.691 0.028-1.013v0c-0.125-0.687-0.46-1.16-1.006-1.419v0c-0.694-0.31-1.381-0.211-2.061 0.297v0c-0.306 0.235-0.608 0.513-0.906 0.833-0.302 0.326-0.608 0.673-0.921 1.039-0.312 0.366-0.654 0.716-1.024 1.048-0.365 0.335-0.743 0.609-1.136 0.82v0c-0.843 0.442-1.69 0.473-2.539 0.095v0c-0.44-0.196-0.807-0.49-1.101-0.881-0.294-0.391-0.482-0.828-0.564-1.311v0c-0.191-0.955-0.052-1.974 0.416-3.059v0c0.699-1.569 1.768-2.608 3.208-3.118v0c0.109-0.011 0.216 0.007 0.321 0.054 0.099 0.044 0.185 0.086 0.257 0.125 0.065 0.037 0.117 0.104 0.154 0.203v0c0.08 0.154 0.085 0.309 0.016 0.465-0.072 0.161-0.253 0.285-0.544 0.37v0c-0.533 0.312-0.911 0.586-1.135 0.821v0c-0.469 0.452-0.821 0.942-1.056 1.468v0c-0.304 0.682-0.424 1.327-0.361 1.935v0c0.075 0.732 0.404 1.228 0.986 1.488zM172.288 118.302v0c0.103-0.302 0.219-0.485 0.348-0.549v0c0.29-0.095 0.5-0.12 0.629-0.076 0.128 0.044 0.237 0.095 0.324 0.154 0.079 0.063 0.143 0.149 0.191 0.259v0c0.082 0.222 0.079 0.461-0.008 0.718v0c-0.099 0.289-0.223 0.465-0.374 0.529v0c-0.246 0.153-0.446 0.203-0.6 0.15-0.161-0.055-0.27-0.114-0.327-0.176-0.055-0.069-0.118-0.148-0.188-0.237v0c-0.099-0.213-0.098-0.471 0.005-0.772zM169.948 118.16l-8.03-2.449c-0.199-0.068-0.328-0.205-0.386-0.411-0.059-0.206-0.056-0.403 0.007-0.589 0.064-0.186 0.182-0.343 0.354-0.471 0.173-0.128 0.359-0.157 0.558-0.09v0l7.859 2.95c0.214 0.087 0.363 0.206 0.448 0.357 0.085 0.151 0.105 0.291 0.061 0.419-0.044 0.128-0.142 0.228-0.295 0.297-0.153 0.07-0.345 0.065-0.576-0.013zM6.398 92.668c0-1.159 0.939-2.098 2.098-2.098 1.159 0 2.098 0.939 2.098 2.098 0 1.159-0.939 2.098-2.098 2.098-1.159 0-2.098-0.939-2.098-2.098zM171.186 92.668c0-1.159 0.939-2.098 2.098-2.098 1.159 0 2.098 0.939 2.098 2.098 0 1.159-0.939 2.098-2.098 2.098-1.159 0-2.098-0.939-2.098-2.098z" fill="#ffffff" data-fill-palette-color="quaternary"></path></svg></g></svg></g></svg></g></svg></g></svg></g></svg></g></svg><rect width="320" height="360" fill="none" stroke="none" visibility="hidden"></rect></g></svg></g></svg>